<svg xmlns="http://www.w3.org/2000/svg" width="1151" height="1151" viewBox="0 0 1151 1151">
  <g id="Group_11" data-name="Group 11" transform="translate(-103 11871)">
    <circle id="Ellipse_3" data-name="Ellipse 3" cx="575.5" cy="575.5" r="575.5" transform="translate(103 -11871)" fill="#fff"/>
    <g id="Group_10" data-name="Group 10" transform="translate(330.417 -11686.898)">
      <g id="Group_9" data-name="Group 9" transform="translate(206.061 252.796)">
        <path id="Path_20" data-name="Path 20" d="M170.473,63.941A10.368,10.368,0,0,0,160.379,56.1H120.634a10.408,10.408,0,0,0-10.094,7.886L46.055,318.366a10.429,10.429,0,0,0,10.139,12.978H87.738a10.457,10.457,0,0,0,10.184-8.2l11.356-51.687H172.05l11.4,51.687a10.5,10.5,0,0,0,10.184,8.2h31.5a10.429,10.429,0,0,0,10.139-12.978L170.608,63.986ZM119.6,224.049l20.909-95.308,21,95.308Z" transform="translate(-45.727 -56.1)" fill="red"/>
        <path id="Path_21" data-name="Path 21" d="M133.211,56.1h-30.1A10.414,10.414,0,0,0,92.7,66.51v254.38a10.414,10.414,0,0,0,10.41,10.41h30.1a10.414,10.414,0,0,0,10.41-10.41V66.51A10.414,10.414,0,0,0,133.211,56.1Zm-30.057,3.7h0a6.312,6.312,0,0,0-2.614.541A6.312,6.312,0,0,1,103.155,59.8Z" transform="translate(118.972 -56.1)" fill="red"/>
      </g>
      <path id="Path_24" data-name="Path 24" d="M694.734,551.655l-.856-324.272A66.087,66.087,0,0,0,660.667,170.2L379.474,8.783a66.01,66.01,0,0,0-66.107.18L32.9,171.82A66.12,66.12,0,0,0,0,229.14L.856,553.413A66.087,66.087,0,0,0,34.068,610.6L315.3,772.013a66.01,66.01,0,0,0,66.107-.18L661.838,608.975a66.044,66.044,0,0,0,32.9-57.365ZM230.316,593.2c-111.981-64.665-150.375-207.875-85.71-319.9,64.665-111.981,207.875-150.375,319.9-85.71,111.981,64.665,150.375,207.875,85.71,319.9-64.665,111.981-207.875,150.375-319.9,85.71Z" transform="translate(0 -0.001)" fill="red"/>
    </g>
  </g>
</svg>
