<svg width="139" height="32" viewBox="0 0 139 32" fill="none" xmlns="http://www.w3.org/2000/svg">
<path d="M12.6567 11.1006C12.6051 10.9302 12.4501 10.8109 12.2779 10.8109H10.7625C10.5731 10.8109 10.4181 10.9302 10.3837 11.1006L7.92123 20.729C7.88679 20.8483 7.92123 20.9676 7.99011 21.0699C8.05899 21.1721 8.17953 21.2232 8.30007 21.2232H9.50547C9.69489 21.2232 9.84987 21.0869 9.90153 20.9165L10.332 18.9567H12.7256L13.1561 20.9165C13.1906 21.1039 13.3628 21.2232 13.5522 21.2232H14.7576C14.8781 21.2232 14.9987 21.1721 15.0675 21.0699C15.1364 20.9676 15.1709 20.8483 15.1364 20.729L12.674 11.1006H12.6567ZM10.7109 17.1503L11.503 13.5546L12.3123 17.1503H10.7109Z" fill="#FF0000"/>
<path d="M17.5127 10.8109H16.359C16.1351 10.8109 15.9629 10.9813 15.9629 11.2029V20.8313C15.9629 21.0528 16.1351 21.2232 16.359 21.2232H17.5127C17.7366 21.2232 17.9088 21.0528 17.9088 20.8313V11.2029C17.9088 10.9813 17.7366 10.8109 17.5127 10.8109ZM16.3762 10.9472C16.3417 10.9472 16.3073 10.9472 16.2729 10.9643C16.3073 10.9643 16.3417 10.9472 16.3762 10.9472Z" fill="#FF0000"/>
<path d="M26.5533 22.1093L26.5188 9.83948C26.5188 8.95332 26.0367 8.1183 25.2446 7.67522L14.4993 1.57437C13.7244 1.1313 12.76 1.1313 11.9679 1.57437L1.25706 7.72634C0.482161 8.16942 0 9.00445 0 9.89061L0.0344398 22.1605C0.0344398 23.0466 0.516601 23.8816 1.30872 24.3247L12.054 30.4256C12.8289 30.8686 13.7932 30.8686 14.5854 30.4256L25.2962 24.2736C26.0711 23.8305 26.5533 22.9955 26.5533 22.1093ZM8.81665 23.6771C4.52886 21.2232 3.06516 15.821 5.54485 11.5777C8.00731 7.33439 13.4833 5.88586 17.7711 8.33983C22.0588 10.7768 23.5225 16.1959 21.0429 20.4393C18.5804 24.6826 13.1044 26.1311 8.81665 23.6771Z" fill="#FF0000"/>
<path d="M34.0611 11.0494C34.2505 10.8449 34.4744 10.6915 34.7327 10.5892C34.991 10.487 35.301 10.4359 35.6454 10.4359C35.9898 10.4359 36.4547 10.504 36.7991 10.6574C37.1435 10.8108 37.419 11.0323 37.6429 11.305C37.7634 11.4584 37.884 11.6288 37.9701 11.8333C38.0734 12.0378 38.1423 12.2423 38.1767 12.4638L40.7253 11.6799C40.5359 11.0153 40.2776 10.4529 39.9504 9.97576C39.6232 9.4986 39.2271 9.0896 38.7622 8.76582C38.3489 8.47611 37.884 8.27161 37.3502 8.13528C36.8336 7.99895 36.2653 7.93079 35.6798 7.93079C35.0943 7.93079 34.2333 8.03303 33.6306 8.25457C33.0451 8.47611 32.5285 8.7999 32.1153 9.22593C31.6848 9.63493 31.3748 10.1291 31.1682 10.7085C30.9615 11.288 30.8582 11.9526 30.8582 12.6854C30.8582 13.4181 30.9787 14.185 31.237 14.7474C31.4953 15.3097 31.8742 15.7869 32.3908 16.1788C32.9074 16.5708 33.579 16.9287 34.4227 17.2184L35.8864 17.7467C36.4203 17.9512 36.8508 18.1557 37.1435 18.3772C37.4363 18.5817 37.6429 18.8203 37.7634 19.0759C37.884 19.3315 37.9356 19.6553 37.9356 20.0473C37.9356 20.4392 37.9012 20.7119 37.8151 20.9675C37.7462 21.2231 37.6085 21.4447 37.4535 21.6492C37.2813 21.8707 37.0574 22.0241 36.7819 22.1263C36.5236 22.2286 36.2136 22.2797 35.8692 22.2797C35.5248 22.2797 35.0599 22.2115 34.7327 22.0582C34.3883 21.9048 34.1128 21.6832 33.8889 21.4106C33.7512 21.2572 33.6306 21.0868 33.5445 20.8652C33.4412 20.6608 33.3895 20.4392 33.3379 20.2177L30.7549 20.9334C30.9271 21.598 31.1854 22.1774 31.5126 22.6887C31.857 23.1999 32.253 23.6089 32.7352 23.9498C33.1657 24.2224 33.6306 24.4269 34.1472 24.5803C34.6638 24.7337 35.2321 24.8018 35.8176 24.8018C36.403 24.8018 37.2813 24.6825 37.8668 24.478C38.4695 24.2565 38.9861 23.9327 39.4166 23.4896C39.8126 23.0636 40.1226 22.5524 40.3464 21.9559C40.5703 21.3595 40.6736 20.6778 40.6736 19.8939C40.6736 19.11 40.5531 18.3772 40.2948 17.8148C40.0365 17.2525 39.6576 16.7753 39.1238 16.3833C38.59 15.9914 37.9012 15.6335 37.023 15.3097L35.5765 14.7814C35.0427 14.577 34.6294 14.3725 34.3539 14.168C34.0611 13.9464 33.8717 13.7249 33.7684 13.4693C33.6651 13.2136 33.6134 12.9239 33.6134 12.5831C33.6134 12.2423 33.6478 11.9526 33.7339 11.6969C33.8028 11.4413 33.9234 11.2368 34.0611 11.0494Z" fill="black"/>
<path d="M49.6108 19.9621C49.6108 20.4733 49.5419 20.9164 49.4041 21.2572C49.2664 21.5981 49.0425 21.8537 48.7153 22.0412C48.3881 22.2286 47.9576 22.3138 47.4238 22.3138C46.89 22.3138 46.4423 22.2286 46.1151 22.0412C45.7879 21.8537 45.5641 21.5981 45.4263 21.2572C45.2885 20.9164 45.2197 20.4904 45.2197 19.9621V8.11829H42.5161V19.8769C42.5161 20.8483 42.6883 21.7003 43.0327 22.4331C43.3771 23.1659 43.9109 23.7453 44.6342 24.1713C45.3574 24.5974 46.3045 24.8019 47.441 24.8019C48.5776 24.8019 49.4902 24.5974 50.2307 24.1713C50.9711 23.7453 51.505 23.1659 51.8321 22.4161C52.1593 21.6662 52.3315 20.8312 52.3315 19.8769V8.11829H49.628V19.9621H49.6108Z" fill="black"/>
<path d="M61.5098 8.6977C60.821 8.30575 59.9428 8.11829 58.8924 8.11829H54.4324V24.5803H57.1359V18.8374H58.8579C59.9256 18.8374 60.8038 18.6499 61.4926 18.275C62.1814 17.9001 62.698 17.3207 63.0424 16.5368C63.3868 15.7529 63.559 14.7304 63.559 13.4863C63.559 12.2423 63.3868 11.2369 63.0424 10.453C62.698 9.66906 62.1814 9.08965 61.4926 8.6977H61.5098ZM60.6144 15.2075C60.4594 15.6165 60.2355 15.9062 59.9428 16.0937C59.65 16.2811 59.2712 16.3664 58.789 16.3664H57.1187V10.6404H58.789C59.2712 10.6404 59.65 10.7256 59.9428 10.9131C60.2355 11.1005 60.4594 11.3902 60.6144 11.7992C60.7693 12.2082 60.8382 12.7706 60.8382 13.4863C60.8382 14.2021 60.7693 14.7985 60.6144 15.2075Z" fill="black"/>
<path d="M65.0916 24.5973H73.2538V22.0922H67.7951V17.4569H72.3412V14.9689H67.7951V10.6403H73.2538V8.13525H65.0916V24.5973Z" fill="black"/>
<path d="M82.1395 17.7126C82.8111 17.3377 83.3449 16.7753 83.7237 16.0255C84.1026 15.2757 84.292 14.3384 84.292 13.2137C84.292 12.0889 84.1198 11.0664 83.7754 10.3336C83.431 9.58382 82.9144 9.0385 82.26 8.68063C81.5884 8.32276 80.7619 8.15234 79.7803 8.15234H74.9587V24.6144H77.6623V18.292H79.5393L81.6229 24.6144H84.5503L82.105 17.7467C82.105 17.7467 82.1395 17.7467 82.1567 17.7296L82.1395 17.7126ZM77.6451 10.6404H79.6598C80.0559 10.6404 80.383 10.7086 80.6758 10.8619C80.9513 11.0153 81.1752 11.2709 81.3301 11.6458C81.4851 12.0037 81.554 12.532 81.554 13.1966C81.554 13.8612 81.4851 14.4066 81.3301 14.7815C81.1752 15.1564 80.9685 15.412 80.693 15.5654C80.4175 15.7187 80.0903 15.7869 79.6942 15.7869H77.6623V10.6574L77.6451 10.6404Z" fill="black"/>
<path d="M97.1554 20.6096L94.8135 8.13525H92.2133L89.8886 20.5414L87.495 8.13525H84.6021L88.4077 24.5973H91.2145L93.522 13.5715L95.8123 24.5973H98.6191L102.408 8.13525H99.549L97.1554 20.6096Z" fill="black"/>
<path d="M106.368 8.13525H103.665V24.5973H106.368V8.13525Z" fill="black"/>
<path d="M111.568 11.0494C111.758 10.8449 111.982 10.6915 112.24 10.5892C112.498 10.487 112.808 10.4359 113.153 10.4359C113.497 10.4359 113.962 10.504 114.306 10.6574C114.651 10.8108 114.926 11.0323 115.15 11.305C115.271 11.4584 115.391 11.6288 115.477 11.8333C115.581 12.0378 115.65 12.2423 115.684 12.4638L118.233 11.6799C118.043 11.0153 117.785 10.4529 117.458 9.97576C117.131 9.4986 116.734 9.0896 116.27 8.76582C115.856 8.47611 115.391 8.27161 114.857 8.13528C114.341 7.99895 113.773 7.93079 113.187 7.93079C112.602 7.93079 111.741 8.03303 111.138 8.25457C110.552 8.47611 110.036 8.7999 109.623 9.22593C109.192 9.63493 108.882 10.1291 108.675 10.7085C108.469 11.288 108.366 11.9526 108.366 12.6854C108.366 13.4181 108.486 14.185 108.744 14.7474C109.003 15.3097 109.382 15.7869 109.898 16.1788C110.415 16.5708 111.086 16.9287 111.93 17.2184L113.394 17.7467C113.928 17.9512 114.358 18.1557 114.651 18.3772C114.944 18.5817 115.15 18.8203 115.271 19.0759C115.391 19.3315 115.443 19.6553 115.443 20.0473C115.443 20.4392 115.409 20.7119 115.322 20.9675C115.254 21.2231 115.116 21.4447 114.961 21.6492C114.789 21.8707 114.565 22.0241 114.289 22.1263C114.031 22.2286 113.721 22.2797 113.377 22.2797C113.032 22.2797 112.567 22.2115 112.24 22.0582C111.896 21.9048 111.62 21.6832 111.396 21.4106C111.258 21.2572 111.138 21.0868 111.052 20.8652C110.949 20.6608 110.88 20.4392 110.845 20.2177L108.262 20.9334C108.434 21.598 108.693 22.1774 109.02 22.6887C109.364 23.1999 109.76 23.6089 110.243 23.9498C110.673 24.2224 111.138 24.4269 111.655 24.5803C112.171 24.7337 112.739 24.8018 113.325 24.8018C113.91 24.8018 114.789 24.6825 115.374 24.478C115.977 24.2565 116.493 23.9327 116.924 23.4896C117.32 23.0636 117.63 22.5524 117.854 21.9559C118.078 21.3595 118.181 20.6778 118.181 19.8939C118.181 19.11 118.06 18.3772 117.802 17.8148C117.544 17.2525 117.165 16.7753 116.631 16.3833C116.097 15.9914 115.409 15.6335 114.53 15.3097L113.084 14.7814C112.55 14.577 112.137 14.3725 111.861 14.168C111.568 13.9464 111.379 13.7249 111.276 13.4693C111.172 13.2136 111.121 12.9239 111.121 12.5831C111.121 12.2423 111.155 11.9526 111.241 11.6969C111.31 11.4413 111.431 11.2368 111.568 11.0494Z" fill="black"/>
<path d="M128.306 10.6403V8.13525H120.127V24.5973H128.306V22.0922H122.83V17.4569H127.376V14.9689H122.83V10.6403H128.306Z" fill="black"/>
<path d="M131.75 8.79989V8.1012H134.833V8.79989H133.662V12.2252H132.921V8.79989H131.75Z" fill="black"/>
<path d="M135.315 8.1012H136.228L137.157 10.8619L138.087 8.1012H139V12.2252H138.328V9.32818L137.467 11.7481H136.848L135.987 9.39634V12.2423H135.315V8.11823V8.1012Z" fill="black"/>
</svg>
